<svg xmlns="http://www.w3.org/2000/svg" width="477.9" height="334.8" viewBox="0 0 477.9 334.8"><defs><style>.a{fill:#2f2e41;}.b{fill:#f5f7fa;}.c{fill:#243b53;}.d{fill:#8eedc7;}.e{fill:none;}.e,.g{stroke:#243b53;stroke-miterlimit:10;stroke-width:2px;}.f{opacity:0.1;}.g{fill:#3f3d56;}.h{fill:#9f616a;}.i{fill:#9fb3c8;}.j{fill:#fff;}</style></defs><g transform="translate(0 0)"><path class="a" d="M940.219,734.555s-8.919-4.694-10.8-.939c0,0,1.408,11.267-4.225,12.675s-7.981,11.266,0,12.205,13.144-1.878,15.961-1.878,0-9.858,0-9.858Z" transform="translate(-539.909 -440.301)"/><path class="a" d="M849.364,560.229s-9.709-2.708-10.752,1.359c0,0,3.753,10.716-1.457,13.281s-5.425,12.7,2.574,11.931,12.453-4.607,15.206-5.2-2.079-9.636-2.079-9.636Z" transform="translate(-491.517 -343.719)"/><ellipse class="b" cx="154.884" cy="154.588" rx="154.884" ry="154.588" transform="translate(24.698 17.35)"/><path class="c" d="M488.867,424.993c-34.228,52.49-24.849,119.251-24.849,119.251s64.873-18.343,99.1-70.833,24.85-119.251,24.85-119.251S523.095,372.5,488.867,424.993Z" transform="translate(-284.542 -229.431)"/><path class="d" d="M282.3,562.3s-.833-.133-2.367-.443c-1.223-.248-2.908-.6-4.964-1.09-18.385-4.335-67.263-18.987-99.218-57.512-40-48.24-38.312-115.635-38.312-115.635s61.155,9.937,101.452,53.257q2.62,2.792,5.1,5.788c34.8,41.973,38.046,98.447,38.3,112.408C282.329,561.164,282.3,562.3,282.3,562.3Z" transform="translate(-102.533 -248.096)"/><path class="e" d="M282.778,424.993c34.228,52.49,24.85,119.251,24.85,119.251s-64.873-18.343-99.1-70.833-24.85-119.251-24.85-119.251S248.55,372.5,282.778,424.993Z" transform="translate(-127.675 -229.431)"/><path class="f" d="M409.38,626.267c-.9,1.09-1.7,2.021-2.358,2.783-1.454,1.658-2.278,2.526-2.278,2.526s-1-1.259-2.686-3.617c-9.246-12.889-38.985-58.717-36.69-111.655q.186-4.162.612-8.235,2.619,2.792,5.1,5.788C405.878,555.831,409.123,612.306,409.38,626.267Z" transform="translate(-229.912 -315.291)"/><path class="d" d="M467.957,389.914c-2.706,62.606-49.179,111.444-49.179,111.444S376.691,448.693,379.4,386.087s49.179-111.444,49.179-111.444S470.662,327.308,467.957,389.914Z" transform="translate(-237.786 -185.072)"/><line class="e" y1="222.389" x2="10.217" transform="translate(180.97 92.125)"/><ellipse class="c" cx="238.95" cy="14.798" rx="238.95" ry="14.798" transform="translate(0 305.204)"/><line class="g" y1="59.769" transform="translate(39.741 254.795)"/><circle class="c" cx="8.452" cy="8.452" r="8.452" transform="translate(31.289 246.475)"/><path class="c" d="M115.63,702.38s-1.207-25.97-25.96-22.951" transform="translate(-75.888 -410.748)"/><line class="g" y1="167.383" transform="translate(245.106 50.197)"/><circle class="c" cx="11.626" cy="11.626" r="11.626" transform="translate(233.48 38.572)"/><path class="c" d="M568.9,251.081s-1.661-35.72-35.707-31.568" transform="translate(-323.755 -153.665)"/><path class="c" d="M835.708,353.323l-10.092,19.019s-72.972,13.973-63.657,35.71,19.8,53.565,25.23,52.788,35.322-17.855,36.486-22.9-26.782-28.723-26.782-28.723l46.19-8.927s6.6,31.052-1.941,52.4-13.585,79.182-7.763,79.959,20.572,5.434,27.17,1.164,9.7-97.814,9.7-97.814,13.973-61.328,5.434-68.314S835.708,353.323,835.708,353.323Z" transform="translate(-451.412 -228.964)"/><path class="h" d="M975.222,198.031s.388,14.362-2.329,15.526,15.138,8.151,15.138,8.151l3.105-5.434s-3.493-19.408-2.717-20.96S975.222,198.031,975.222,198.031Z" transform="translate(-569.385 -140.141)"/><circle class="a" cx="23.799" cy="23.799" r="23.799" transform="translate(388.516 13.663)"/><circle class="a" cx="9.848" cy="9.848" r="9.848" transform="translate(404.108 5.334)"/><path class="a" d="M964.591,80.567a9.849,9.849,0,0,1,8.822-9.794,9.963,9.963,0,0,0-1.025-.053,9.848,9.848,0,1,0,0,19.7,9.957,9.957,0,0,0,1.026-.053A9.849,9.849,0,0,1,964.591,80.567Z" transform="translate(-563.766 -70.719)"/><circle class="h" cx="16.302" cy="16.302" r="16.302" transform="translate(395.358 32.766)"/><path class="i" d="M957.355,228.435s-13.974,4.27-20.96,0S912.718,236.587,910,242.021s10.092,10.868,10.092,10.868-3.658,10.494-2.911,15.72c.776,5.434-.582,16.5-.582,16.5s34.291,22.592,41.92,12.421c1.164-1.553,10.868-38.039,10.868-38.039L982.973,245.9s-8.539-12.421-13.585-13.585A109.631,109.631,0,0,1,957.355,228.435Z" transform="translate(-534.245 -158.369)"/><path class="h" d="M778.2,409.947s-26.394,13.585-20.96,17.467S784.8,412.276,784.8,412.276Z" transform="translate(-448.529 -260.24)"/><path class="h" d="M1022.556,381.6s-11.744-7.929-13.635-3.965,12.859,12.892,15.964,9.4S1022.556,381.6,1022.556,381.6Z" transform="translate(-589.547 -241.561)"/><path class="i" d="M1044.918,259.39l6.987,4.27s23.677,32.6,15.526,39.979-29.111,22.125-29.111,22.125-6.987-10.092-4.658-10.48,20.96-15.914,20.96-15.914l-16.3-30.276Z" transform="translate(-603.176 -176.154)"/><path class="i" d="M853.921,255.878l-5.046,1.941-13.2,23.677L800.745,323.8s4.658,7.375,8.539,5.822,32.993-34.157,32.993-34.157l19.019-29.5Z" transform="translate(-473.305 -174.197)"/><ellipse class="a" cx="16.413" cy="9.848" rx="16.413" ry="9.848" transform="translate(395.902 19.851)"/><rect class="d" width="76.491" height="76.491" transform="translate(302.16 239.596)"/><path class="j" d="M822.652,661.844c0,10.836-5.074,17.664-13.1,17.664-4.109,0-7.238-2.193-7.779-5.454h-.585c-1.448,3.393-4.431,5.25-8.437,5.25-7.136,0-11.9-5.718-11.9-14.228,0-8.174,4.8-13.863,11.8-13.863a8.5,8.5,0,0,1,8,4.782h.585v-4.065h5.835v18.907c0,2.354,1.3,3.773,3.641,3.773,4.051,0,6.624-4.913,6.624-12.546,0-12.181-9.125-20.326-22.607-20.326-13.336,0-22.841,9.724-22.841,23.484,0,14.067,9.4,23.046,24.04,23.046a44.387,44.387,0,0,0,7.955-.673,2.312,2.312,0,0,1,.98,4.519,40.866,40.866,0,0,1-9.169.994c-17.8-.015-29.187-11.011-29.187-28.076,0-16.656,11.625-28.091,28.573-28.091C811.363,636.94,822.652,647.1,822.652,661.844Zm-35.5,3.363c0,5.41,2.544,8.686,6.683,8.686,4.358,0,7.107-3.363,7.107-8.686s-2.749-8.613-7.034-8.613c-4.255,0-6.756,3.187-6.756,8.612Z" transform="translate(-454.159 -387.182)"/></g></svg>